<svg id="visual" viewBox="0 0 1920 500" width="1920" height="500" xmlns="http://www.w3.org/2000/svg" xmlns:xlink="http://www.w3.org/1999/xlink" version="1.1"><rect x="0" y="0" width="1920" height="500" fill="#253779"></rect><defs><linearGradient id="grad1_0" x1="74%" y1="0%" x2="100%" y2="100%"><stop offset="-26.799999999999997%" stop-color="#253779" stop-opacity="1"></stop><stop offset="126.80000000000001%" stop-color="#253779" stop-opacity="1"></stop></linearGradient></defs><defs><linearGradient id="grad2_0" x1="0%" y1="0%" x2="26%" y2="100%"><stop offset="-26.799999999999997%" stop-color="#253779" stop-opacity="1"></stop><stop offset="126.80000000000001%" stop-color="#253779" stop-opacity="1"></stop></linearGradient></defs><g transform="translate(1920, 0)"><path d="M0 450C-25.8 404.4 -51.5 358.9 -96.8 361.3C-142.1 363.6 -206.9 413.9 -225 389.7C-243.1 365.5 -214.5 266.7 -223.4 223.4C-232.4 180.2 -278.8 192.3 -317 183C-355.1 173.7 -384.9 142.8 -405.7 108.7C-426.5 74.6 -438.2 37.3 -450 0L0 0Z" fill="#f7941d"></path></g><g transform="translate(0, 500)"><path d="M0 -450C25.3 -388 50.7 -326.1 84.4 -314.9C118.1 -303.7 160.1 -343.3 205.5 -355.9C250.9 -368.6 299.7 -354.4 318.2 -318.2C336.7 -282 324.8 -223.8 314.4 -181.5C303.9 -139.2 294.9 -112.8 317.8 -85.2C340.6 -57.5 395.3 -28.8 450 0L0 0Z" fill="#f7941d"></path></g></svg>