<svg id="visual" viewBox="0 0 1920 1080" width="1920" height="1080" xmlns="http://www.w3.org/2000/svg" xmlns:xlink="http://www.w3.org/1999/xlink" version="1.1"><g stroke-width="1" stroke-linejoin="bevel"><path d="M1003.8 535L895.2 565L883.2 647Z" fill="#1b4fa6" stroke="#1b4fa6"></path><path d="M883.2 647L1049.8 678L1003.8 535Z" fill="#1b2f62" stroke="#1b2f62"></path><path d="M883.2 780L1045.8 781L1049.8 678Z" fill="#162042" stroke="#162042"></path><path d="M883.2 647L883.2 780L1049.8 678Z" fill="#1b2f62" stroke="#1b2f62"></path><path d="M1190.5 547L1028.8 408L1003.8 535Z" fill="#1b4fa6" stroke="#1b4fa6"></path><path d="M1003.8 535L880.2 380L895.2 565Z" fill="#1d3f83" stroke="#1d3f83"></path><path d="M880.2 380L769.5 525L895.2 565Z" fill="#182852" stroke="#182852"></path><path d="M895.2 565L769.5 525L883.2 647Z" fill="#1b4fa6" stroke="#1b4fa6"></path><path d="M883.2 647L733.5 669L883.2 780Z" fill="#1160ca" stroke="#1160ca"></path><path d="M1161.5 800L1189.5 669L1049.8 678Z" fill="#1b2f62" stroke="#1b2f62"></path><path d="M1049.8 678L1190.5 547L1003.8 535Z" fill="#182852" stroke="#182852"></path><path d="M1189.5 669L1190.5 547L1049.8 678Z" fill="#0f1225" stroke="#0f1225"></path><path d="M769.5 525L733.5 669L883.2 647Z" fill="#1b4fa6" stroke="#1b4fa6"></path><path d="M1028.8 408L880.2 380L1003.8 535Z" fill="#1c3772" stroke="#1c3772"></path><path d="M1060.8 913L1161.5 800L1045.8 781Z" fill="#1b2f62" stroke="#1b2f62"></path><path d="M1045.8 781L1161.5 800L1049.8 678Z" fill="#1d3f83" stroke="#1d3f83"></path><path d="M880.2 380L760.5 411L769.5 525Z" fill="#162042" stroke="#162042"></path><path d="M769.5 525L573.8 567L733.5 669Z" fill="#1c3772" stroke="#1c3772"></path><path d="M1190.5 547L1165.5 391L1028.8 408Z" fill="#1c3772" stroke="#1c3772"></path><path d="M1028.8 408L901.2 289L880.2 380Z" fill="#1b2f62" stroke="#1b2f62"></path><path d="M733.5 669L720.5 795L883.2 780Z" fill="#1b2f62" stroke="#1b2f62"></path><path d="M893.2 936L1060.8 913L1045.8 781Z" fill="#1c4794" stroke="#1c4794"></path><path d="M893.2 936L1045.8 781L883.2 780Z" fill="#1b4fa6" stroke="#1b4fa6"></path><path d="M720.5 795L893.2 936L883.2 780Z" fill="#1c4794" stroke="#1c4794"></path><path d="M1037.8 274L901.2 289L1028.8 408Z" fill="#162042" stroke="#162042"></path><path d="M880.2 380L739.5 270L760.5 411Z" fill="#1b2f62" stroke="#1b2f62"></path><path d="M1308.2 787L1302.2 673L1189.5 669Z" fill="#121933" stroke="#121933"></path><path d="M1189.5 669L1302.2 673L1190.5 547Z" fill="#121933" stroke="#121933"></path><path d="M1190.5 547L1316.2 526L1165.5 391Z" fill="#1c4794" stroke="#1c4794"></path><path d="M1308.2 787L1189.5 669L1161.5 800Z" fill="#1c3772" stroke="#1c3772"></path><path d="M1165.5 391L1037.8 274L1028.8 408Z" fill="#1160ca" stroke="#1160ca"></path><path d="M1302.2 673L1316.2 526L1190.5 547Z" fill="#162042" stroke="#162042"></path><path d="M1165.5 391L1207.5 257L1037.8 274Z" fill="#1160ca" stroke="#1160ca"></path><path d="M1204.5 969L1308.2 787L1161.5 800Z" fill="#1160ca" stroke="#1160ca"></path><path d="M1302.2 673L1505.9 567L1316.2 526Z" fill="#1160ca" stroke="#1160ca"></path><path d="M570.8 381L573.8 567L760.5 411Z" fill="#182852" stroke="#182852"></path><path d="M760.5 411L573.8 567L769.5 525Z" fill="#1c4794" stroke="#1c4794"></path><path d="M733.5 669L575.8 782L720.5 795Z" fill="#1b2f62" stroke="#1b2f62"></path><path d="M573.8 567L564.8 667L733.5 669Z" fill="#1b4fa6" stroke="#1b4fa6"></path><path d="M880.2 117L739.5 270L901.2 289Z" fill="#1d3f83" stroke="#1d3f83"></path><path d="M901.2 289L739.5 270L880.2 380Z" fill="#121933" stroke="#121933"></path><path d="M620.8 975L729.5 965L720.5 795Z" fill="#182852" stroke="#182852"></path><path d="M720.5 795L729.5 965L893.2 936Z" fill="#1c4794" stroke="#1c4794"></path><path d="M1030.8 1080L1204.5 969L1060.8 913Z" fill="#1d3f83" stroke="#1d3f83"></path><path d="M1030.8 1080L1060.8 913L893.2 936Z" fill="#182852" stroke="#182852"></path><path d="M1060.8 913L1204.5 969L1161.5 800Z" fill="#0f1225" stroke="#0f1225"></path><path d="M564.8 667L575.8 782L733.5 669Z" fill="#1c3772" stroke="#1c3772"></path><path d="M1477.9 381L1333.2 390L1316.2 526Z" fill="#1160ca" stroke="#1160ca"></path><path d="M1316.2 526L1333.2 390L1165.5 391Z" fill="#1757b8" stroke="#1757b8"></path><path d="M1333.2 390L1207.5 257L1165.5 391Z" fill="#0f1225" stroke="#0f1225"></path><path d="M1037.8 274L1049.8 129L901.2 289Z" fill="#1160ca" stroke="#1160ca"></path><path d="M739.5 270L570.8 381L760.5 411Z" fill="#1160ca" stroke="#1160ca"></path><path d="M573.8 567L473.1 669L564.8 667Z" fill="#1757b8" stroke="#1757b8"></path><path d="M879.2 1080L1030.8 1080L893.2 936Z" fill="#182852" stroke="#182852"></path><path d="M729.5 965L879.2 1080L893.2 936Z" fill="#1d3f83" stroke="#1d3f83"></path><path d="M1353.2 1080L1321.2 957L1204.5 969Z" fill="#182852" stroke="#182852"></path><path d="M1204.5 969L1321.2 957L1308.2 787Z" fill="#121933" stroke="#121933"></path><path d="M1308.2 787L1474.9 705L1302.2 673Z" fill="#0f1225" stroke="#0f1225"></path><path d="M1187.5 133L1049.8 129L1037.8 274Z" fill="#1d3f83" stroke="#1d3f83"></path><path d="M411.1 538L473.1 669L573.8 567Z" fill="#121933" stroke="#121933"></path><path d="M564.8 667L473.1 669L575.8 782Z" fill="#1b4fa6" stroke="#1b4fa6"></path><path d="M575.8 782L620.8 975L720.5 795Z" fill="#121933" stroke="#121933"></path><path d="M454.1 794L620.8 975L575.8 782Z" fill="#121933" stroke="#121933"></path><path d="M729.5 965L713.5 1080L879.2 1080Z" fill="#1c4794" stroke="#1c4794"></path><path d="M739.5 270L621.8 248L570.8 381Z" fill="#1b4fa6" stroke="#1b4fa6"></path><path d="M725.5 132L621.8 248L739.5 270Z" fill="#182852" stroke="#182852"></path><path d="M1049.8 129L880.2 117L901.2 289Z" fill="#1b2f62" stroke="#1b2f62"></path><path d="M1030.8 1080L1185.5 1080L1204.5 969Z" fill="#1757b8" stroke="#1757b8"></path><path d="M1455.9 803L1474.9 705L1308.2 787Z" fill="#0f1225" stroke="#0f1225"></path><path d="M1321.2 957L1455.9 803L1308.2 787Z" fill="#162042" stroke="#162042"></path><path d="M1333.2 390L1352.2 264L1207.5 257Z" fill="#1757b8" stroke="#1757b8"></path><path d="M1207.5 257L1187.5 133L1037.8 274Z" fill="#1c3772" stroke="#1c3772"></path><path d="M1477.9 381L1352.2 264L1333.2 390Z" fill="#1d3f83" stroke="#1d3f83"></path><path d="M620.8 975L713.5 1080L729.5 965Z" fill="#1757b8" stroke="#1757b8"></path><path d="M454.1 275L474.1 426L570.8 381Z" fill="#1d3f83" stroke="#1d3f83"></path><path d="M570.8 381L474.1 426L573.8 567Z" fill="#1c4794" stroke="#1c4794"></path><path d="M1342.2 149L1187.5 133L1207.5 257Z" fill="#1160ca" stroke="#1160ca"></path><path d="M1049.8 129L899.2 0L880.2 117Z" fill="#162042" stroke="#162042"></path><path d="M1596.6 529L1505.9 567L1647.6 695Z" fill="#121933" stroke="#121933"></path><path d="M1474.9 705L1505.9 567L1302.2 673Z" fill="#1d3f83" stroke="#1d3f83"></path><path d="M880.2 117L725.5 132L739.5 270Z" fill="#1160ca" stroke="#1160ca"></path><path d="M325.4 677L454.1 794L473.1 669Z" fill="#162042" stroke="#162042"></path><path d="M473.1 669L454.1 794L575.8 782Z" fill="#182852" stroke="#182852"></path><path d="M620.8 975L572.8 1080L713.5 1080Z" fill="#162042" stroke="#162042"></path><path d="M1505.9 567L1477.9 381L1316.2 526Z" fill="#1c4794" stroke="#1c4794"></path><path d="M474.1 426L411.1 538L573.8 567Z" fill="#1c3772" stroke="#1c3772"></path><path d="M1458.9 136L1342.2 149L1352.2 264Z" fill="#182852" stroke="#182852"></path><path d="M1352.2 264L1342.2 149L1207.5 257Z" fill="#1c3772" stroke="#1c3772"></path><path d="M725.5 132L597.8 144L621.8 248Z" fill="#1160ca" stroke="#1160ca"></path><path d="M621.8 248L454.1 275L570.8 381Z" fill="#1d3f83" stroke="#1d3f83"></path><path d="M474.1 426L324.4 409L411.1 538Z" fill="#162042" stroke="#162042"></path><path d="M585.8 0L597.8 144L725.5 132Z" fill="#1160ca" stroke="#1160ca"></path><path d="M1185.5 1080L1353.2 1080L1204.5 969Z" fill="#182852" stroke="#182852"></path><path d="M1321.2 957L1482.9 956L1455.9 803Z" fill="#0f1225" stroke="#0f1225"></path><path d="M425.1 976L572.8 1080L620.8 975Z" fill="#182852" stroke="#182852"></path><path d="M1353.2 1080L1482.9 956L1321.2 957Z" fill="#1160ca" stroke="#1160ca"></path><path d="M1625.6 815L1647.6 695L1474.9 705Z" fill="#1b2f62" stroke="#1b2f62"></path><path d="M1477.9 381L1491.9 291L1352.2 264Z" fill="#162042" stroke="#162042"></path><path d="M1645.6 428L1491.9 291L1477.9 381Z" fill="#1d3f83" stroke="#1d3f83"></path><path d="M597.8 144L454.1 275L621.8 248Z" fill="#121933" stroke="#121933"></path><path d="M1044.8 0L899.2 0L1049.8 129Z" fill="#1757b8" stroke="#1757b8"></path><path d="M880.2 117L749.5 0L725.5 132Z" fill="#182852" stroke="#182852"></path><path d="M1044.8 0L1049.8 129L1187.5 0Z" fill="#0f1225" stroke="#0f1225"></path><path d="M1187.5 0L1049.8 129L1187.5 133Z" fill="#121933" stroke="#121933"></path><path d="M1647.6 695L1505.9 567L1474.9 705Z" fill="#1160ca" stroke="#1160ca"></path><path d="M1505.9 567L1596.6 529L1477.9 381Z" fill="#162042" stroke="#162042"></path><path d="M411.1 538L325.4 677L473.1 669Z" fill="#1c4794" stroke="#1c4794"></path><path d="M454.1 794L425.1 976L620.8 975Z" fill="#1d3f83" stroke="#1d3f83"></path><path d="M294.4 545L325.4 677L411.1 538Z" fill="#1c3772" stroke="#1c3772"></path><path d="M279.4 822L425.1 976L454.1 794Z" fill="#1757b8" stroke="#1757b8"></path><path d="M899.2 0L749.5 0L880.2 117Z" fill="#162042" stroke="#162042"></path><path d="M597.8 144L443.1 105L454.1 275Z" fill="#0f1225" stroke="#0f1225"></path><path d="M1354.2 0L1187.5 0L1187.5 133Z" fill="#0f1225" stroke="#0f1225"></path><path d="M1354.2 0L1187.5 133L1342.2 149Z" fill="#1c4794" stroke="#1c4794"></path><path d="M454.1 275L324.4 409L474.1 426Z" fill="#1b2f62" stroke="#1b2f62"></path><path d="M324.4 409L294.4 545L411.1 538Z" fill="#1b2f62" stroke="#1b2f62"></path><path d="M1625.6 815L1474.9 705L1455.9 803Z" fill="#0f1225" stroke="#0f1225"></path><path d="M1482.9 956L1625.6 815L1455.9 803Z" fill="#1d3f83" stroke="#1d3f83"></path><path d="M1647.6 268L1458.9 136L1491.9 291Z" fill="#1c4794" stroke="#1c4794"></path><path d="M1491.9 291L1458.9 136L1352.2 264Z" fill="#1c3772" stroke="#1c3772"></path><path d="M317.4 1080L445.1 1080L425.1 976Z" fill="#162042" stroke="#162042"></path><path d="M425.1 976L445.1 1080L572.8 1080Z" fill="#1160ca" stroke="#1160ca"></path><path d="M1353.2 1080L1495.9 1080L1482.9 956Z" fill="#1b4fa6" stroke="#1b4fa6"></path><path d="M1482.9 956L1592.6 955L1625.6 815Z" fill="#1c4794" stroke="#1c4794"></path><path d="M1768.3 523L1645.6 428L1596.6 529Z" fill="#1757b8" stroke="#1757b8"></path><path d="M1596.6 529L1645.6 428L1477.9 381Z" fill="#1c3772" stroke="#1c3772"></path><path d="M1495.9 1080L1592.6 955L1482.9 956Z" fill="#1b2f62" stroke="#1b2f62"></path><path d="M156.7 704L279.4 822L325.4 677Z" fill="#0f1225" stroke="#0f1225"></path><path d="M325.4 677L279.4 822L454.1 794Z" fill="#162042" stroke="#162042"></path><path d="M749.5 0L585.8 0L725.5 132Z" fill="#1160ca" stroke="#1160ca"></path><path d="M454.1 275L314.4 246L324.4 409Z" fill="#1160ca" stroke="#1160ca"></path><path d="M1458.9 136L1354.2 0L1342.2 149Z" fill="#182852" stroke="#182852"></path><path d="M585.8 0L443.1 105L597.8 144Z" fill="#0f1225" stroke="#0f1225"></path><path d="M279.4 822L325.4 975L425.1 976Z" fill="#1d3f83" stroke="#1d3f83"></path><path d="M443.1 105L314.4 246L454.1 275Z" fill="#162042" stroke="#162042"></path><path d="M171.7 415L170.7 539L294.4 545Z" fill="#1b4fa6" stroke="#1b4fa6"></path><path d="M1645.6 428L1647.6 268L1491.9 291Z" fill="#1b2f62" stroke="#1b2f62"></path><path d="M1458.9 136L1497.9 0L1354.2 0Z" fill="#1b4fa6" stroke="#1b4fa6"></path><path d="M1766.3 277L1647.6 268L1645.6 428Z" fill="#1c4794" stroke="#1c4794"></path><path d="M1495.9 1080L1605.6 1080L1592.6 955Z" fill="#121933" stroke="#121933"></path><path d="M1766.3 949L1754.3 813L1625.6 815Z" fill="#182852" stroke="#182852"></path><path d="M1778.3 662L1768.3 523L1647.6 695Z" fill="#1d3f83" stroke="#1d3f83"></path><path d="M171.7 1080L317.4 1080L325.4 975Z" fill="#121933" stroke="#121933"></path><path d="M325.4 975L317.4 1080L425.1 976Z" fill="#1c3772" stroke="#1c3772"></path><path d="M171.7 415L294.4 545L324.4 409Z" fill="#1c3772" stroke="#1c3772"></path><path d="M294.4 545L156.7 704L325.4 677Z" fill="#1c3772" stroke="#1c3772"></path><path d="M279.4 822L123.7 961L325.4 975Z" fill="#1757b8" stroke="#1757b8"></path><path d="M443.1 105L275.4 127L314.4 246Z" fill="#1c4794" stroke="#1c4794"></path><path d="M585.8 0L455.1 0L443.1 105Z" fill="#1d3f83" stroke="#1d3f83"></path><path d="M1754.3 813L1647.6 695L1625.6 815Z" fill="#1757b8" stroke="#1757b8"></path><path d="M1647.6 695L1768.3 523L1596.6 529Z" fill="#0f1225" stroke="#0f1225"></path><path d="M1766.3 949L1625.6 815L1592.6 955Z" fill="#121933" stroke="#121933"></path><path d="M1754.3 813L1778.3 662L1647.6 695Z" fill="#0f1225" stroke="#0f1225"></path><path d="M1655.6 112L1497.9 0L1458.9 136Z" fill="#1757b8" stroke="#1757b8"></path><path d="M170.7 539L156.7 704L294.4 545Z" fill="#1757b8" stroke="#1757b8"></path><path d="M314.4 246L171.7 415L324.4 409Z" fill="#1160ca" stroke="#1160ca"></path><path d="M0 779L115.7 835L156.7 704Z" fill="#1c4794" stroke="#1c4794"></path><path d="M131.7 288L171.7 415L314.4 246Z" fill="#1160ca" stroke="#1160ca"></path><path d="M1920 517L1782.3 411L1768.3 523Z" fill="#1c4794" stroke="#1c4794"></path><path d="M1768.3 523L1782.3 411L1645.6 428Z" fill="#1c3772" stroke="#1c3772"></path><path d="M1647.6 268L1655.6 112L1458.9 136Z" fill="#162042" stroke="#162042"></path><path d="M298.4 0L275.4 127L443.1 105Z" fill="#1b4fa6" stroke="#1b4fa6"></path><path d="M1776.3 123L1655.6 112L1647.6 268Z" fill="#1b2f62" stroke="#1b2f62"></path><path d="M1754.3 813L1920 694L1778.3 662Z" fill="#1b2f62" stroke="#1b2f62"></path><path d="M1605.6 1080L1766.3 949L1592.6 955Z" fill="#0f1225" stroke="#0f1225"></path><path d="M1782.3 411L1766.3 277L1645.6 428Z" fill="#1c4794" stroke="#1c4794"></path><path d="M0 644L156.7 704L170.7 539Z" fill="#1160ca" stroke="#1160ca"></path><path d="M156.7 704L115.7 835L279.4 822Z" fill="#182852" stroke="#182852"></path><path d="M170.7 121L131.7 288L314.4 246Z" fill="#182852" stroke="#182852"></path><path d="M0 551L0 644L170.7 539Z" fill="#182852" stroke="#182852"></path><path d="M455.1 0L298.4 0L443.1 105Z" fill="#121933" stroke="#121933"></path><path d="M275.4 127L170.7 121L314.4 246Z" fill="#1c4794" stroke="#1c4794"></path><path d="M115.7 835L123.7 961L279.4 822Z" fill="#1c3772" stroke="#1c3772"></path><path d="M1757.3 0L1639.6 0L1655.6 112Z" fill="#162042" stroke="#162042"></path><path d="M1655.6 112L1639.6 0L1497.9 0Z" fill="#1b4fa6" stroke="#1b4fa6"></path><path d="M1605.6 1080L1760.3 1080L1766.3 949Z" fill="#1c3772" stroke="#1c3772"></path><path d="M123.7 961L171.7 1080L325.4 975Z" fill="#121933" stroke="#121933"></path><path d="M298.4 0L170.7 121L275.4 127Z" fill="#1c3772" stroke="#1c3772"></path><path d="M1766.3 277L1776.3 123L1647.6 268Z" fill="#1c4794" stroke="#1c4794"></path><path d="M1920 164L1776.3 123L1766.3 277Z" fill="#121933" stroke="#121933"></path><path d="M1920 838L1754.3 813L1766.3 949Z" fill="#1c3772" stroke="#1c3772"></path><path d="M1920 838L1920 694L1754.3 813Z" fill="#121933" stroke="#121933"></path><path d="M1778.3 662L1920 517L1768.3 523Z" fill="#1b2f62" stroke="#1b2f62"></path><path d="M1782.3 411L1920 297L1766.3 277Z" fill="#1c3772" stroke="#1c3772"></path><path d="M1920 694L1920 517L1778.3 662Z" fill="#1757b8" stroke="#1757b8"></path><path d="M115.7 835L0 918L123.7 961Z" fill="#1757b8" stroke="#1757b8"></path><path d="M0 551L170.7 539L0 427Z" fill="#1757b8" stroke="#1757b8"></path><path d="M170.7 539L171.7 415L0 427Z" fill="#1b2f62" stroke="#1b2f62"></path><path d="M0 427L171.7 415L131.7 288Z" fill="#182852" stroke="#182852"></path><path d="M1920 517L1920 402L1782.3 411Z" fill="#1b2f62" stroke="#1b2f62"></path><path d="M1920 963L1920 838L1766.3 949Z" fill="#121933" stroke="#121933"></path><path d="M0 644L0 779L156.7 704Z" fill="#1c4794" stroke="#1c4794"></path><path d="M123.7 961L0 1080L171.7 1080Z" fill="#1757b8" stroke="#1757b8"></path><path d="M0 289L0 427L131.7 288Z" fill="#0f1225" stroke="#0f1225"></path><path d="M1920 0L1757.3 0L1776.3 123Z" fill="#1d3f83" stroke="#1d3f83"></path><path d="M1776.3 123L1757.3 0L1655.6 112Z" fill="#1b4fa6" stroke="#1b4fa6"></path><path d="M1920 402L1920 297L1782.3 411Z" fill="#121933" stroke="#121933"></path><path d="M1760.3 1080L1920 963L1766.3 949Z" fill="#182852" stroke="#182852"></path><path d="M0 779L0 918L115.7 835Z" fill="#182852" stroke="#182852"></path><path d="M298.4 0L154.7 0L170.7 121Z" fill="#1d3f83" stroke="#1d3f83"></path><path d="M0 134L0 289L131.7 288Z" fill="#182852" stroke="#182852"></path><path d="M0 134L131.7 288L170.7 121Z" fill="#1d3f83" stroke="#1d3f83"></path><path d="M1920 297L1920 164L1766.3 277Z" fill="#1c3772" stroke="#1c3772"></path><path d="M1760.3 1080L1920 1080L1920 963Z" fill="#1b4fa6" stroke="#1b4fa6"></path><path d="M0 918L0 1080L123.7 961Z" fill="#1c4794" stroke="#1c4794"></path><path d="M154.7 0L0 134L170.7 121Z" fill="#182852" stroke="#182852"></path><path d="M1920 164L1920 0L1776.3 123Z" fill="#182852" stroke="#182852"></path><path d="M154.7 0L0 0L0 134Z" fill="#1c4794" stroke="#1c4794"></path></g></svg>