<svg id="visual" viewBox="0 798 1920 300" width="1920" height="300" xmlns="http://www.w3.org/2000/svg" xmlns:xlink="http://www.w3.org/1999/xlink" version="1.1">
    <path d="M0 878L21.3 882.5C42.7 887 85.3 896 128 905.2C170.7 914.3 213.3 923.7 256 919.8C298.7 916 341.3 899 384 900.5C426.7 902 469.3 922 512 924.8C554.7 927.7 597.3 913.3 640 902.5C682.7 891.7 725.3 884.3 768 891.5C810.7 898.7 853.3 920.3 896 923.5C938.7 926.7 981.3 911.3 1024 901.7C1066.7 892 1109.3 888 1152 896.2C1194.7 904.3 1237.3 924.7 1280 921.5C1322.7 918.3 1365.3 891.7 1408 892.7C1450.7 893.7 1493.3 922.3 1536 933C1578.7 943.7 1621.3 936.3 1664 928.7C1706.7 921 1749.3 913 1792 903.2C1834.7 893.3 1877.3 881.7 1898.7 875.8L1920 870L1920 1181L1898.7 1181C1877.3 1181 1834.7 1181 1792 1181C1749.3 1181 1706.7 1181 1664 1181C1621.3 1181 1578.7 1181 1536 1181C1493.3 1181 1450.7 1181 1408 1181C1365.3 1181 1322.7 1181 1280 1181C1237.3 1181 1194.7 1181 1152 1181C1109.3 1181 1066.7 1181 1024 1181C981.3 1181 938.7 1181 896 1181C853.3 1181 810.7 1181 768 1181C725.3 1181 682.7 1181 640 1181C597.3 1181 554.7 1181 512 1181C469.3 1181 426.7 1181 384 1181C341.3 1181 298.7 1181 256 1181C213.3 1181 170.7 1181 128 1181C85.3 1181 42.7 1181 21.3 1181L0 1181Z" fill="#f7941d"></path>
    <path d="M0 937L21.3 932.7C42.7 928.3 85.3 919.7 128 911.2C170.7 902.7 213.3 894.3 256 887C298.7 879.7 341.3 873.3 384 879.7C426.7 886 469.3 905 512 913.3C554.7 921.7 597.3 919.3 640 916.7C682.7 914 725.3 911 768 908.5C810.7 906 853.3 904 896 903.5C938.7 903 981.3 904 1024 897.5C1066.7 891 1109.3 877 1152 869.5C1194.7 862 1237.3 861 1280 861.8C1322.7 862.7 1365.3 865.3 1408 872.2C1450.7 879 1493.3 890 1536 895.3C1578.7 900.7 1621.3 900.3 1664 901.8C1706.7 903.3 1749.3 906.7 1792 913.5C1834.7 920.3 1877.3 930.7 1898.7 935.8L1920 941L1920 1181L1898.7 1181C1877.3 1181 1834.7 1181 1792 1181C1749.3 1181 1706.7 1181 1664 1181C1621.3 1181 1578.7 1181 1536 1181C1493.3 1181 1450.7 1181 1408 1181C1365.3 1181 1322.7 1181 1280 1181C1237.3 1181 1194.7 1181 1152 1181C1109.3 1181 1066.7 1181 1024 1181C981.3 1181 938.7 1181 896 1181C853.3 1181 810.7 1181 768 1181C725.3 1181 682.7 1181 640 1181C597.3 1181 554.7 1181 512 1181C469.3 1181 426.7 1181 384 1181C341.3 1181 298.7 1181 256 1181C213.3 1181 170.7 1181 128 1181C85.3 1181 42.7 1181 21.3 1181L0 1181Z" fill="#f7941d"></path>
    <path d="M0 1010L21.3 1008.2C42.7 1006.3 85.3 1002.7 128 999.5C170.7 996.3 213.3 993.7 256 1000.2C298.7 1006.7 341.3 1022.3 384 1024.2C426.7 1026 469.3 1014 512 1014.2C554.7 1014.3 597.3 1026.7 640 1024.5C682.7 1022.3 725.3 1005.7 768 1007C810.7 1008.3 853.3 1027.7 896 1029.8C938.7 1032 981.3 1017 1024 1010C1066.7 1003 1109.3 1004 1152 1003.8C1194.7 1003.7 1237.3 1002.3 1280 1001.3C1322.7 1000.3 1365.3 999.7 1408 1001.7C1450.7 1003.7 1493.3 1008.3 1536 1014.3C1578.7 1020.3 1621.3 1027.7 1664 1029.2C1706.7 1030.7 1749.3 1026.3 1792 1019.7C1834.7 1013 1877.3 1004 1898.7 999.5L1920 995L1920 1181L1898.7 1181C1877.3 1181 1834.7 1181 1792 1181C1749.3 1181 1706.7 1181 1664 1181C1621.3 1181 1578.7 1181 1536 1181C1493.3 1181 1450.7 1181 1408 1181C1365.3 1181 1322.7 1181 1280 1181C1237.3 1181 1194.7 1181 1152 1181C1109.3 1181 1066.7 1181 1024 1181C981.3 1181 938.7 1181 896 1181C853.3 1181 810.7 1181 768 1181C725.3 1181 682.7 1181 640 1181C597.3 1181 554.7 1181 512 1181C469.3 1181 426.7 1181 384 1181C341.3 1181 298.7 1181 256 1181C213.3 1181 170.7 1181 128 1181C85.3 1181 42.7 1181 21.3 1181L0 1181Z" fill="#f7941d"></path>
</svg>
