<svg id="visual" viewBox="0 0 1920 1080" width="1920" height="1080" xmlns="http://www.w3.org/2000/svg" xmlns:xlink="http://www.w3.org/1999/xlink" version="1.1"><rect x="0" y="0" width="1920" height="1080" fill="#253779"></rect><g fill="#f7941d"><circle r="79" cx="1469" cy="98"></circle><circle r="40" cx="1129" cy="409"></circle><circle r="44" cx="857" cy="437"></circle><circle r="62" cx="1285" cy="606"></circle><circle r="76" cx="166" cy="505"></circle><circle r="51" cx="259" cy="834"></circle><circle r="66" cx="701" cy="115"></circle><circle r="56" cx="373" cy="373"></circle><circle r="62" cx="1286" cy="1078"></circle><circle r="70" cx="706" cy="840"></circle><circle r="70" cx="414" cy="185"></circle><circle r="63" cx="1236" cy="183"></circle><circle r="61" cx="620" cy="1042"></circle><circle r="52" cx="523" cy="446"></circle><circle r="69" cx="1666" cy="893"></circle><circle r="62" cx="1477" cy="424"></circle><circle r="76" cx="895" cy="851"></circle><circle r="69" cx="64" cy="944"></circle><circle r="63" cx="1694" cy="619"></circle><circle r="55" cx="1313" cy="854"></circle><circle r="69" cx="1866" cy="1063"></circle><circle r="76" cx="1067" cy="1037"></circle><circle r="40" cx="76" cy="55"></circle><circle r="61" cx="4" cy="416"></circle><circle r="73" cx="1521" cy="961"></circle><circle r="51" cx="81" cy="252"></circle><circle r="59" cx="883" cy="212"></circle><circle r="64" cx="12" cy="788"></circle><circle r="77" cx="1829" cy="429"></circle><circle r="49" cx="480" cy="634"></circle><circle r="50" cx="1027" cy="106"></circle><circle r="55" cx="1913" cy="678"></circle><circle r="66" cx="1235" cy="16"></circle><circle r="39" cx="1618" cy="30"></circle></g></svg>